<svg xmlns="http://www.w3.org/2000/svg" xmlns:xlink="http://www.w3.org/1999/xlink" width="2000" zoomAndPan="magnify" viewBox="0 0 1500 1499.999933" height="2000" preserveAspectRatio="xMidYMid meet" version="1.0"><defs><clipPath id="6e2fa9295c"><path d="M 189 0 L 1388.730469 0 L 1388.730469 1500 L 189 1500 Z M 189 0 " clip-rule="nonzero"/></clipPath><clipPath id="2e3b0cbd80"><path d="M 978 0 L 1388.730469 0 L 1388.730469 359 L 978 359 Z M 978 0 " clip-rule="nonzero"/></clipPath></defs><g clip-path="url(#6e2fa9295c)"><path stroke-linecap="round" transform="matrix(5.533013, 0, 0, 5.533013, -656.883078, -632.921389)" fill="none" stroke-linejoin="round" d="M 368.729992 177.859895 L 368.729992 374.000069 C 368.729286 374.345298 368.711636 374.689821 368.677043 375.032932 C 368.643155 375.376749 368.591618 375.717742 368.523843 376.055911 C 368.456068 376.394786 368.372055 376.728719 368.271098 377.059122 C 368.170142 377.389526 368.053654 377.714281 367.921634 378.032682 C 367.788908 378.35179 367.641356 378.663131 367.478272 378.967413 C 367.315188 379.271694 367.137279 379.567504 366.94525 379.854136 C 366.753221 380.140767 366.547778 380.417515 366.328921 380.684379 C 366.109358 380.951244 365.877793 381.206812 365.633521 381.450378 C 365.389249 381.694651 365.13368 381.926215 364.866816 382.145072 C 364.599952 382.363929 364.323204 382.569372 364.035866 382.761401 C 363.748529 382.952724 363.452719 383.129928 363.148437 383.293011 C 362.844156 383.455389 362.532108 383.602941 362.213707 383.734961 C 361.8946 383.867687 361.569844 383.983469 361.239441 384.08372 C 360.909038 384.184676 360.575105 384.268689 360.23623 384.335758 C 359.898061 384.403533 359.557068 384.454364 359.213251 384.488252 C 358.869434 384.522139 358.524911 384.539789 358.179682 384.539789 L 164.439873 384.539789 C 164.094644 384.539789 163.750121 384.522139 163.40701 384.488252 C 163.063193 384.454364 162.7222 384.403533 162.384031 384.335758 C 162.045156 384.268689 161.710517 384.184676 161.380114 384.08372 C 161.050416 383.983469 160.725661 383.867687 160.406554 383.734961 C 160.087446 383.602941 159.776105 383.455389 159.471823 383.293011 C 159.166836 383.129928 158.871026 382.952724 158.584394 382.761401 C 158.297057 382.569372 158.020309 382.363929 157.753444 382.145072 C 157.48658 381.926215 157.231012 381.694651 156.98674 381.450378 C 156.742467 381.206812 156.510903 380.951244 156.29134 380.684379 C 156.072483 380.417515 155.866334 380.140767 155.674305 379.854136 C 155.482276 379.567504 155.305072 379.271694 155.141989 378.967413 C 154.978905 378.663131 154.831353 378.35179 154.698627 378.032682 C 154.565901 377.714281 154.449413 377.389526 154.349162 377.059122 C 154.248206 376.728719 154.164193 376.394786 154.096418 376.055911 C 154.027937 375.717742 153.977106 375.376749 153.942512 375.032932 C 153.907919 374.689821 153.890975 374.345298 153.890269 374.000069 L 153.890269 126.00001 C 153.890975 125.654781 153.909331 125.310964 153.94463 124.967853 C 153.979224 124.624036 154.030761 124.283749 154.099242 123.94558 C 154.167723 123.607411 154.252442 123.272772 154.353398 122.943075 C 154.454355 122.613378 154.570843 122.288623 154.703569 121.970221 C 154.836295 121.65182 154.984553 121.340478 155.147637 121.036903 C 155.31072 120.732621 155.48863 120.437518 155.680659 120.150886 C 155.872688 119.864254 156.078131 119.587506 156.297694 119.320642 C 156.516551 119.054484 156.748115 118.798916 156.992388 118.555349 C 157.23666 118.311077 157.491522 118.080218 157.758386 117.861361 C 158.025251 117.642504 158.301998 117.437061 158.58863 117.245032 C 158.875968 117.053003 159.171072 116.8758 159.475353 116.712716 C 159.779635 116.550338 160.090976 116.402787 160.409378 116.27006 C 160.728485 116.137334 161.052534 116.020846 161.382937 115.920596 C 161.712635 115.819639 162.046568 115.735626 162.385443 115.667145 C 162.723612 115.59937 163.063899 115.547833 163.407716 115.51324 C 163.750827 115.478646 164.094644 115.460996 164.439873 115.46029 L 296.930134 115.46029 Z M 368.729992 177.859895 " stroke="#000000" stroke-width="1.9" stroke-opacity="1" stroke-miterlimit="4"/></g><path stroke-linecap="butt" transform="matrix(5.533013, 0, 0, 5.533013, 64.179191, 0.553281)" fill="none" stroke-linejoin="round" d="M 23.570262 129.100353 L 23.570262 106.479737 L 0.950352 106.479737 Z M 23.570262 129.100353 " stroke="#000000" stroke-width="1.9" stroke-opacity="1" stroke-miterlimit="4"/><path stroke-linecap="round" transform="matrix(5.533013, 0, 0, 5.533013, -656.883078, -632.921389)" fill="none" stroke-linejoin="round" d="M 131.269653 150.869909 L 266.00002 150.869909 C 266.377018 150.871321 266.752605 150.890383 267.127485 150.9278 C 267.502366 150.965924 267.874422 151.021697 268.243655 151.095826 C 268.612888 151.170661 268.977884 151.26244 269.337939 151.372574 C 269.697994 151.482002 270.052401 151.609786 270.399748 151.753808 C 270.747801 151.898536 271.088088 152.060208 271.419903 152.238117 C 271.751718 152.416027 272.074355 152.609468 272.387815 152.819147 C 272.700568 153.02812 273.002732 153.252624 273.293599 153.491955 C 273.585173 153.730579 273.864039 153.983324 274.130197 154.250188 C 274.396355 154.516346 274.6491 154.795212 274.88843 155.08608 C 275.127055 155.376947 275.351559 155.679111 275.561238 155.99257 C 275.770917 156.305324 275.964358 156.627961 276.142268 156.959776 C 276.320177 157.292297 276.481143 157.631879 276.625871 157.979931 C 276.770599 158.327984 276.897677 158.681685 277.007811 159.042446 C 277.117946 159.402501 277.209724 159.767497 277.283853 160.13673 C 277.357982 160.505963 277.414461 160.878019 277.451879 161.2529 C 277.490002 161.62778 277.509064 162.003367 277.50977 162.379659 L 277.50977 209.459994 C 277.510476 209.648493 277.50624 209.836992 277.497062 210.025491 C 277.487884 210.213991 277.47447 210.401784 277.456115 210.589577 C 277.438465 210.77737 277.415167 210.965164 277.38834 211.151545 C 277.360806 211.337926 277.329036 211.524308 277.292325 211.709277 C 277.255614 211.894246 277.214666 212.078509 277.169483 212.261361 C 277.123593 212.444212 277.073468 212.626357 277.019107 212.806385 C 276.964746 212.987118 276.906149 213.16644 276.84261 213.344349 C 276.77907 213.522258 276.712001 213.69805 276.63999 213.872429 C 276.56798 214.046809 276.491733 214.21907 276.41125 214.38992 C 276.330767 214.560769 276.246048 214.728795 276.1578 214.895408 C 276.068845 215.062022 275.97636 215.226518 275.87964 215.388189 C 275.782919 215.549861 275.681962 215.709414 275.577476 215.86685 C 275.47299 216.02358 275.364267 216.178192 275.252721 216.329979 C 275.140468 216.481061 275.024686 216.630025 274.904668 216.776165 C 274.785356 216.922305 274.662513 217.064915 274.536141 217.204701 C 274.409769 217.345193 274.279867 217.481449 274.146435 217.615587 C 274.013003 217.749019 273.876747 217.878921 273.736961 218.005999 C 273.597881 218.133077 273.455271 218.255919 273.309131 218.375938 C 273.163697 218.495956 273.015439 218.611738 272.863652 218.724696 C 272.71257 218.836949 272.558664 218.945671 272.401934 219.050864 C 272.245205 219.156056 272.085651 219.257013 271.923979 219.354439 C 271.762308 219.45116 271.598518 219.54435 271.431905 219.633305 C 271.265997 219.722966 271.097265 219.807685 270.927122 219.888167 C 270.756272 219.969356 270.584011 220.045603 270.410337 220.11832 C 270.235958 220.190331 270.060167 220.258812 269.882257 220.322351 C 269.705054 220.38589 269.525732 220.445899 269.345705 220.50026 C 269.164972 220.555328 268.983532 220.606159 268.800681 220.652048 C 268.617124 220.697938 268.433566 220.739591 268.248597 220.776302 C 268.063628 220.81372 267.877952 220.846195 267.690865 220.873729 C 267.504484 220.901263 267.317397 220.92456 267.129603 220.943622 C 266.94181 220.961978 266.754017 220.976098 266.565518 220.985981 C 266.377018 220.995159 266.188519 221.000101 266.00002 221.000101 L 131.269653 221.000101 Z M 131.269653 150.869909 " stroke="#000000" stroke-width="1.9" stroke-opacity="1" stroke-miterlimit="4"/><g clip-path="url(#2e3b0cbd80)"><path stroke-linecap="square" transform="matrix(5.533013, 0, 0, 5.533013, 64.179191, 0.553281)" fill="none" stroke-linejoin="round" d="M 166.610127 63.369889 L 166.610127 0.94981 L 238.409984 63.369889 Z M 166.610127 63.369889 " stroke="#000000" stroke-width="1.9" stroke-opacity="1" stroke-miterlimit="4"/></g><path fill="#2d3d54" d="M 458.847656 711.765625 L 768.308594 711.765625 L 768.308594 1011.988281 L 458.847656 1011.988281 Z M 458.847656 711.765625 " fill-opacity="1" fill-rule="nonzero"/><path fill="#2d3d54" d="M 857.117188 718.351562 L 1119.046875 718.351562 L 1119.046875 765.382812 L 857.117188 765.382812 Z M 857.117188 718.351562 " fill-opacity="1" fill-rule="nonzero"/><path fill="#2d3d54" d="M 857.117188 847.878906 L 1119.046875 847.878906 L 1119.046875 894.910156 L 857.117188 894.910156 Z M 857.117188 847.878906 " fill-opacity="1" fill-rule="nonzero"/><path fill="#2d3d54" d="M 857.117188 964.902344 L 1119.046875 964.902344 L 1119.046875 1011.933594 L 857.117188 1011.933594 Z M 857.117188 964.902344 " fill-opacity="1" fill-rule="nonzero"/><path fill="#2d3d54" d="M 465.433594 1088.175781 L 1118.992188 1088.175781 L 1118.992188 1135.207031 L 465.433594 1135.207031 Z M 465.433594 1088.175781 " fill-opacity="1" fill-rule="nonzero"/><path fill="#2d3d54" d="M 465.433594 1211.617188 L 1118.992188 1211.617188 L 1118.992188 1258.539062 L 465.433594 1258.539062 Z M 465.433594 1211.617188 " fill-opacity="1" fill-rule="nonzero"/><path fill="#2d3d54" d="M 356.15625 280.027344 L 392.398438 280.027344 L 392.398438 511.359375 L 356.15625 511.359375 Z M 466.816406 514.625 C 449.277344 514.625 435.941406 509.644531 426.8125 499.574219 C 417.683594 489.503906 413.367188 475.285156 413.367188 456.472656 L 413.367188 443.304688 L 447.671875 443.304688 L 447.671875 459.128906 C 447.671875 474.011719 453.980469 481.539062 466.539062 481.539062 C 467.847656 481.628906 469.148438 481.574219 470.445312 481.375 C 471.738281 481.175781 472.996094 480.835938 474.214844 480.355469 C 475.4375 479.878906 476.589844 479.273438 477.675781 478.539062 C 478.757812 477.804688 479.75 476.960938 480.648438 476.003906 C 482.4375 473.449219 483.734375 470.664062 484.542969 467.648438 C 485.351562 464.636719 485.621094 461.574219 485.351562 458.464844 C 485.445312 453.984375 484.933594 449.574219 483.816406 445.230469 C 482.695312 440.890625 481.015625 436.78125 478.769531 432.902344 C 471.945312 422.773438 463.773438 413.886719 454.257812 406.234375 C 441.851562 396.019531 431.414062 384.085938 422.941406 370.433594 C 419.90625 364.894531 417.632812 359.054688 416.113281 352.921875 C 414.59375 346.789062 413.882812 340.566406 413.976562 334.25 C 413.976562 315.878906 418.679688 301.769531 427.917969 291.699219 C 437.160156 281.628906 450.496094 276.652344 468.253906 276.652344 C 486.015625 276.652344 498.6875 281.6875 507.59375 291.699219 C 516.503906 301.714844 521.09375 316.210938 521.09375 334.859375 L 521.09375 344.429688 L 486.570312 344.429688 L 486.570312 332.480469 C 486.851562 329.433594 486.601562 326.429688 485.820312 323.472656 C 485.042969 320.515625 483.777344 317.78125 482.03125 315.269531 C 481.191406 314.324219 480.257812 313.488281 479.226562 312.757812 C 478.191406 312.027344 477.09375 311.421875 475.921875 310.941406 C 474.753906 310.460938 473.542969 310.121094 472.296875 309.917969 C 471.046875 309.714844 469.792969 309.65625 468.53125 309.738281 C 456.304688 309.738281 450.382812 317.152344 450.382812 331.871094 C 450.375 336.027344 450.9375 340.101562 452.074219 344.097656 C 453.214844 348.097656 454.882812 351.859375 457.078125 355.386719 C 464.085938 365.308594 472.308594 374.085938 481.753906 381.722656 C 487.992188 386.773438 493.738281 392.324219 499 398.382812 C 504.257812 404.445312 508.949219 410.914062 513.074219 417.796875 C 516.046875 423.671875 518.265625 429.824219 519.726562 436.246094 C 521.1875 442.667969 521.84375 449.167969 521.703125 455.753906 C 521.703125 474.730469 517 488.953125 507.59375 499.355469 C 498.1875 509.757812 484.6875 514.570312 466.816406 514.570312 Z M 594.960938 514.625 C 577.253906 514.625 563.589844 509.644531 554.015625 499.410156 C 544.445312 489.171875 539.90625 474.953125 539.90625 456.472656 L 539.90625 334.746094 C 539.90625 316.210938 544.609375 301.9375 554.015625 291.753906 C 556.714844 289.132812 559.652344 286.820312 562.828125 284.8125 C 566.007812 282.800781 569.359375 281.144531 572.886719 279.832031 C 576.410156 278.523438 580.03125 277.589844 583.75 277.035156 C 587.472656 276.480469 591.207031 276.316406 594.960938 276.539062 C 612.832031 276.539062 626.5 281.742188 635.90625 291.753906 C 645.3125 301.769531 650.179688 316.210938 650.179688 334.746094 L 650.179688 456.472656 C 650.179688 474.953125 645.476562 489.230469 635.90625 499.410156 C 626.332031 509.589844 612.832031 514.625 594.960938 514.625 Z M 594.960938 481.425781 C 607.519531 481.425781 613.773438 473.902344 613.773438 458.6875 L 613.773438 332.644531 C 613.773438 317.429688 607.519531 309.902344 594.960938 309.902344 C 582.402344 309.902344 576.148438 317.429688 576.148438 332.644531 L 576.148438 458.90625 C 576.148438 474.125 582.402344 481.648438 594.960938 481.648438 Z M 594.960938 481.425781 " fill-opacity="1" fill-rule="nonzero"/></svg>