<svg xmlns="http://www.w3.org/2000/svg" xmlns:xlink="http://www.w3.org/1999/xlink" width="2000" zoomAndPan="magnify" viewBox="0 0 1500 1499.999933" height="2000" preserveAspectRatio="xMidYMid meet" version="1.0"><defs><clipPath id="d1570cfcd4"><path d="M 79 49.070312 L 1381 49.070312 L 1381 1450.820312 L 79 1450.820312 Z M 79 49.070312 " clip-rule="nonzero"/></clipPath><clipPath id="76fe507d10"><path d="M 18.511719 502 L 169 502 L 169 988 L 18.511719 988 Z M 18.511719 502 " clip-rule="nonzero"/></clipPath><clipPath id="4830347776"><path d="M 1037 495 L 1499.761719 495 L 1499.761719 995 L 1037 995 Z M 1037 495 " clip-rule="nonzero"/></clipPath></defs><g clip-path="url(#d1570cfcd4)"><path fill="#2d3d54" d="M 726.507812 49.070312 C 919.753906 49.070312 1095.425781 128.128906 1222.164062 254.878906 C 1286.160156 320.132812 1338.863281 396.683594 1373.996094 483.273438 C 1353.917969 474.488281 1331.332031 469.46875 1308.746094 465.703125 C 1288.667969 423.039062 1262.316406 382.878906 1233.457031 346.488281 C 1182.007812 400.449219 1123.03125 445.625 1056.527344 480.765625 C 1061.546875 504.605469 1065.3125 528.449219 1069.074219 552.292969 C 1050.253906 576.136719 1035.195312 601.238281 1025.15625 628.84375 C 1021.390625 586.175781 1015.117188 544.765625 1007.589844 504.605469 C 961.160156 524.6875 912.222656 541 862.03125 551.039062 C 848.226562 532.214844 833.167969 517.15625 815.601562 504.605469 C 878.34375 495.824219 938.574219 478.253906 993.785156 453.15625 L 996.296875 451.902344 C 981.238281 390.410156 961.160156 333.9375 937.320312 284.996094 C 887.125 184.601562 823.132812 118.089844 752.859375 104.285156 L 752.859375 475.742188 C 736.546875 470.722656 718.980469 466.960938 700.160156 465.703125 L 700.160156 104.285156 C 629.886719 118.089844 564.636719 184.601562 515.699219 284.996094 C 491.859375 333.9375 471.78125 390.410156 456.722656 451.902344 L 457.976562 453.15625 C 486.839844 465.703125 515.699219 477 545.816406 485.785156 C 526.992188 493.3125 510.679688 503.351562 494.367188 517.15625 C 493.113281 518.410156 490.605469 520.921875 489.347656 522.175781 C 474.289062 517.15625 459.234375 510.882812 444.175781 504.605469 C 431.628906 572.375 422.84375 646.414062 421.589844 724.21875 L 446.683594 724.21875 C 454.214844 740.53125 464.253906 755.59375 476.800781 769.394531 C 479.308594 771.90625 481.820312 774.414062 484.328125 776.925781 L 421.589844 776.925781 C 422.84375 790.730469 422.84375 803.277344 422.84375 817.082031 L 399 820.847656 L 409.039062 854.730469 C 414.058594 876.066406 421.589844 894.886719 431.628906 911.203125 C 434.136719 930.027344 436.644531 948.851562 439.15625 967.675781 C 447.941406 963.910156 456.722656 960.144531 464.253906 956.378906 C 479.308594 971.4375 495.621094 983.988281 514.445312 994.027344 C 491.859375 1001.558594 470.527344 1010.339844 450.449219 1020.382812 C 465.507812 1094.421875 488.09375 1159.675781 515.699219 1216.148438 C 564.636719 1316.542969 629.886719 1383.054688 700.160156 1395.601562 L 700.160156 1024.144531 C 717.726562 1021.636719 735.292969 1019.125 752.859375 1014.105469 L 752.859375 1395.601562 C 823.132812 1383.054688 887.125 1316.542969 937.320312 1216.148438 C 963.671875 1159.675781 986.257812 1094.421875 1002.570312 1020.382812 C 952.378906 996.539062 897.164062 978.96875 839.445312 968.929688 C 855.757812 955.125 869.558594 940.066406 879.597656 923.75 C 926.027344 933.792969 971.199219 948.851562 1012.609375 967.675781 C 1018.882812 935.046875 1022.648438 899.910156 1026.410156 864.769531 C 1036.449219 891.125 1051.507812 916.222656 1070.332031 940.066406 C 1067.820312 957.636719 1065.3125 975.203125 1061.546875 991.519531 C 1131.816406 1030.421875 1193.300781 1079.363281 1246.003906 1137.089844 C 1272.355469 1101.949219 1296.199219 1063.046875 1315.019531 1022.890625 C 1337.605469 1019.125 1358.9375 1012.851562 1380.269531 1004.066406 C 1343.882812 1095.675781 1289.921875 1177.246094 1222.164062 1246.265625 C 1095.425781 1373.015625 919.753906 1450.820312 726.507812 1450.820312 C 533.265625 1450.820312 357.59375 1373.015625 230.855469 1246.265625 C 166.859375 1181.011719 114.15625 1104.460938 79.023438 1019.125 L 136.746094 1019.125 C 155.566406 1060.539062 179.410156 1100.695312 207.015625 1137.089844 C 259.71875 1079.363281 321.203125 1030.421875 390.21875 991.519531 C 377.667969 925.007812 370.140625 852.222656 368.886719 776.925781 L 199.484375 776.925781 L 199.484375 724.21875 L 368.886719 724.21875 C 371.394531 637.628906 380.179688 556.058594 396.492188 480.765625 C 329.988281 445.625 271.011719 400.449219 219.5625 346.488281 C 189.445312 385.390625 163.09375 426.800781 141.765625 470.722656 L 84.042969 470.722656 C 119.175781 389.15625 169.371094 316.367188 230.855469 254.878906 C 357.59375 128.128906 533.265625 49.070312 726.507812 49.070312 Z M 1184.519531 292.523438 C 1102.957031 210.957031 1001.316406 151.972656 887.125 121.855469 C 923.515625 158.25 956.140625 204.679688 983.746094 262.40625 C 1007.589844 310.09375 1027.667969 366.566406 1043.980469 428.058594 C 1101.699219 395.429688 1154.402344 354.015625 1198.320312 306.328125 C 1194.558594 301.308594 1189.539062 296.289062 1184.519531 292.523438 Z M 1184.519531 1208.621094 C 1194.558594 1198.582031 1203.339844 1188.539062 1212.125 1178.5 C 1166.953125 1125.792969 1111.738281 1081.871094 1051.507812 1045.480469 C 1033.941406 1118.265625 1011.355469 1183.519531 983.746094 1238.738281 C 956.140625 1295.210938 923.515625 1342.894531 887.125 1378.035156 C 1001.316406 1349.171875 1102.957031 1290.191406 1184.519531 1208.621094 Z M 268.5 1208.621094 C 348.808594 1290.191406 451.703125 1349.171875 565.894531 1378.035156 C 529.503906 1342.894531 496.878906 1295.210938 469.273438 1238.738281 C 441.664062 1183.519531 419.078125 1118.265625 401.511719 1045.480469 C 341.28125 1081.871094 286.066406 1125.792969 239.640625 1178.5 C 249.679688 1188.539062 258.460938 1198.582031 268.5 1208.621094 Z M 268.5 292.523438 C 263.480469 296.289062 258.460938 301.308594 253.441406 306.328125 C 298.617188 354.015625 351.320312 395.429688 409.039062 428.058594 C 424.097656 366.566406 445.429688 310.09375 469.273438 262.40625 C 496.878906 204.679688 529.503906 158.25 565.894531 121.855469 C 451.703125 151.972656 348.808594 210.957031 268.5 292.523438 Z M 870.8125 724.21875 L 1006.335938 724.21875 C 1006.335938 730.492188 1006.335938 738.023438 1006.335938 745.550781 C 1006.335938 755.59375 1006.335938 766.886719 1007.589844 776.925781 L 898.421875 776.925781 C 893.402344 760.613281 885.871094 744.296875 875.832031 730.492188 C 873.324219 727.984375 872.070312 725.472656 870.8125 724.21875 Z M 870.8125 724.21875 " fill-opacity="1" fill-rule="nonzero"/></g><g clip-path="url(#76fe507d10)"><path fill="#096cb0" d="M 18.792969 502.097656 L 168.113281 502.097656 L 168.113281 987.753906 L 18.792969 987.753906 Z M 18.792969 502.097656 " fill-opacity="1" fill-rule="nonzero"/></g><path fill="#096cb0" d="M 439.15625 845.945312 L 577.1875 822.101562 C 588.480469 861.003906 618.59375 881.085938 666.277344 881.085938 C 703.921875 881.085938 722.746094 871.046875 722.746094 850.964844 C 722.746094 840.925781 717.726562 832.140625 710.195312 827.121094 C 701.414062 820.847656 685.101562 815.828125 663.769531 810.808594 C 578.441406 794.496094 524.484375 773.160156 499.386719 748.0625 C 475.546875 721.710938 464.253906 690.335938 464.253906 655.199219 C 464.253906 608.765625 481.820312 571.117188 515.699219 541 C 550.835938 510.882812 599.773438 495.824219 665.023438 495.824219 C 764.15625 495.824219 829.40625 534.726562 860.777344 613.785156 L 737.804688 651.433594 C 725.253906 618.804688 698.902344 602.492188 660.003906 602.492188 C 627.378906 602.492188 611.066406 612.53125 611.066406 632.609375 C 611.066406 642.648438 614.832031 648.921875 622.359375 653.941406 C 629.886719 658.964844 643.691406 663.984375 665.023438 667.746094 C 722.746094 680.296875 764.15625 690.335938 787.996094 700.375 C 813.09375 709.160156 833.167969 725.472656 849.480469 748.0625 C 865.792969 771.90625 873.324219 798.257812 873.324219 829.632812 C 873.324219 878.574219 853.246094 918.730469 814.347656 948.851562 C 774.191406 978.96875 722.746094 994.027344 657.496094 994.027344 C 539.542969 994.027344 466.761719 945.085938 439.15625 845.945312 Z M 439.15625 845.945312 " fill-opacity="1" fill-rule="nonzero"/><g clip-path="url(#4830347776)"><path fill="#096cb0" d="M 1268.59375 994.027344 C 1200.832031 994.027344 1144.363281 971.4375 1101.699219 926.261719 C 1059.035156 881.085938 1037.703125 820.847656 1037.703125 745.550781 C 1037.703125 672.765625 1057.78125 613.785156 1099.191406 566.097656 C 1140.601562 519.667969 1197.066406 495.824219 1269.847656 495.824219 C 1337.605469 495.824219 1392.820312 517.15625 1435.484375 562.332031 C 1478.148438 606.257812 1499.480469 666.492188 1499.480469 740.53125 C 1499.480469 817.082031 1476.890625 878.574219 1434.226562 925.007812 C 1391.5625 971.4375 1336.351562 994.027344 1268.59375 994.027344 Z M 1268.59375 884.847656 C 1293.6875 884.847656 1311.253906 873.554688 1322.550781 852.222656 C 1333.84375 829.632812 1338.863281 789.476562 1338.863281 731.75 C 1338.863281 647.667969 1316.273438 605 1271.101562 605 C 1222.164062 605 1197.066406 652.6875 1197.066406 749.316406 C 1197.066406 839.671875 1220.910156 884.847656 1268.59375 884.847656 Z M 1268.59375 884.847656 " fill-opacity="1" fill-rule="nonzero"/></g></svg>