<svg xmlns="http://www.w3.org/2000/svg" xmlns:xlink="http://www.w3.org/1999/xlink" width="2000" zoomAndPan="magnify" viewBox="0 0 1500 1499.999933" height="2000" preserveAspectRatio="xMidYMid meet" version="1.0"><defs><clipPath id="831933e147"><path d="M 189 0 L 1388.730469 0 L 1388.730469 1500 L 189 1500 Z M 189 0 " clip-rule="nonzero"/></clipPath><clipPath id="c0143506aa"><path d="M 978 0 L 1388.730469 0 L 1388.730469 359 L 978 359 Z M 978 0 " clip-rule="nonzero"/></clipPath></defs><g clip-path="url(#831933e147)"><path stroke-linecap="round" transform="matrix(5.532181, 0, 0, 5.533013, -656.77479, -632.921389)" fill="none" stroke-linejoin="round" d="M 368.72985 177.859895 L 368.72985 374.000069 C 368.729144 374.345298 368.711492 374.689821 368.677599 375.032932 C 368.643001 375.376749 368.591456 375.717742 368.52367 376.055911 C 368.455885 376.394786 368.37186 376.728719 368.270888 377.059122 C 368.170622 377.389526 368.054117 377.714281 367.921371 378.032682 C 367.788625 378.35179 367.641051 378.663131 367.477942 378.967413 C 367.314834 379.271694 367.137604 379.567504 366.945546 379.854136 C 366.753488 380.140767 366.548014 380.417515 366.328418 380.684379 C 366.109529 380.951244 365.877929 381.206812 365.63362 381.450378 C 365.389311 381.694651 365.133704 381.926215 364.8668 382.145072 C 364.599896 382.363929 364.323106 382.569372 364.035725 382.761401 C 363.74905 382.952724 363.453196 383.129928 363.148869 383.293011 C 362.843835 383.455389 362.532447 383.602941 362.213292 383.734961 C 361.894843 383.867687 361.570038 383.983469 361.239586 384.08372 C 360.909133 384.184676 360.575149 384.268689 360.236223 384.335758 C 359.898004 384.403533 359.556959 384.454364 359.213091 384.488252 C 358.869928 384.522139 358.525353 384.539789 358.180072 384.539789 L 164.440082 384.539789 C 164.094801 384.539789 163.750226 384.522139 163.407064 384.488252 C 163.063195 384.454364 162.722151 384.403533 162.383931 384.335758 C 162.045005 384.268689 161.711021 384.184676 161.380568 384.08372 C 161.050116 383.983469 160.725312 383.867687 160.406862 383.734961 C 160.087707 383.602941 159.775613 383.455389 159.471285 383.293011 C 159.166958 383.129928 158.871104 382.952724 158.584429 382.761401 C 158.297048 382.569372 158.020258 382.363929 157.753354 382.145072 C 157.48645 381.926215 157.230843 381.694651 156.986534 381.450378 C 156.742225 381.206812 156.510625 380.951244 156.29103 380.684379 C 156.07214 380.417515 155.866666 380.140767 155.674608 379.854136 C 155.48255 379.567504 155.30532 379.271694 155.142212 378.967413 C 154.979104 378.663131 154.830823 378.35179 154.698783 378.032682 C 154.566037 377.714281 154.449532 377.389526 154.34856 377.059122 C 154.248294 376.728719 154.164269 376.394786 154.095778 376.055911 C 154.027992 375.717742 153.977154 375.376749 153.942555 375.032932 C 153.907956 374.689821 153.890304 374.345298 153.890304 374.000069 L 153.890304 126.00001 C 153.89101 125.654781 153.909368 125.310964 153.944673 124.967853 C 153.979272 124.624036 154.030817 124.283749 154.099308 123.94558 C 154.167799 123.607411 154.252531 123.272772 154.353503 122.943075 C 154.454474 122.613378 154.57098 122.288623 154.703726 121.970221 C 154.836472 121.65182 154.984752 121.340478 155.14786 121.036903 C 155.310969 120.732621 155.488905 120.437518 155.680963 120.150886 C 155.873021 119.864254 156.078495 119.587506 156.297384 119.320642 C 156.516274 119.054484 156.747874 118.798916 156.992183 118.555349 C 157.236492 118.311077 157.492099 118.080218 157.758297 117.861361 C 158.025201 117.642504 158.301991 117.437061 158.588666 117.245032 C 158.876047 117.053003 159.171195 116.8758 159.475522 116.712716 C 159.779849 116.550338 160.091237 116.402787 160.409687 116.27006 C 160.728136 116.137334 161.05294 116.020846 161.382687 115.920596 C 161.712434 115.819639 162.047123 115.735626 162.385343 115.667145 C 162.723563 115.59937 163.063901 115.547833 163.40777 115.51324 C 163.750932 115.478646 164.094801 115.460996 164.440082 115.46029 L 296.929788 115.46029 Z M 368.72985 177.859895 " stroke="#000000" stroke-width="1.9" stroke-opacity="1" stroke-miterlimit="4"/></g><path stroke-linecap="butt" transform="matrix(5.532181, 0, 0, 5.533013, 64.179081, 0.553281)" fill="none" stroke-linejoin="round" d="M 23.570295 129.100353 L 23.570295 106.479737 L 0.949809 106.479737 Z M 23.570295 129.100353 " stroke="#000000" stroke-width="1.9" stroke-opacity="1" stroke-miterlimit="4"/><path stroke-linecap="round" transform="matrix(5.532181, 0, 0, 5.533013, -656.77479, -632.921389)" fill="none" stroke-linejoin="round" d="M 131.269817 150.869909 L 265.999966 150.869909 C 266.377021 150.871321 266.752664 150.890383 267.127601 150.9278 C 267.501832 150.965924 267.873944 151.021697 268.243232 151.095826 C 268.61252 151.170661 268.977572 151.26244 269.337681 151.372574 C 269.698496 151.482002 270.05225 151.609786 270.400355 151.753808 C 270.747754 151.898536 271.088092 152.060208 271.419957 152.238117 C 271.751822 152.416027 272.074508 152.609468 272.387309 152.819147 C 272.700815 153.02812 273.003024 153.252624 273.293936 153.491955 C 273.584847 153.730579 273.863755 153.983324 274.129953 154.250188 C 274.396151 154.516346 274.648934 154.795212 274.8883 155.08608 C 275.126961 155.376947 275.351499 155.679111 275.56121 155.99257 C 275.77092 156.305324 275.96439 156.627961 276.142326 156.959776 C 276.320263 157.292297 276.481252 157.631879 276.626002 157.979931 C 276.770752 158.327984 276.897849 158.681685 277.008 159.042446 C 277.117445 159.402501 277.209943 159.767497 277.284083 160.13673 C 277.358223 160.505963 277.414005 160.878019 277.452134 161.2529 C 277.489557 161.62778 277.509328 162.003367 277.510034 162.379659 L 277.510034 209.459994 C 277.510034 209.648493 277.505797 209.836992 277.497324 210.025491 C 277.488145 210.213991 277.474729 210.401784 277.456371 210.589577 C 277.438012 210.77737 277.415417 210.965164 277.387879 211.151545 C 277.361048 211.337926 277.328567 211.524308 277.292557 211.709277 C 277.25584 211.894246 277.214886 212.078509 277.16899 212.261361 C 277.1238 212.444212 277.073667 212.626357 277.019297 212.806385 C 276.964928 212.987118 276.905616 213.16644 276.842773 213.344349 C 276.779225 213.522258 276.71144 213.69805 276.640124 213.872429 C 276.568102 214.046809 276.491844 214.21907 276.411349 214.38992 C 276.330854 214.560769 276.246122 214.728795 276.157861 214.895408 C 276.068892 215.062022 275.976394 215.226518 275.879659 215.388189 C 275.782924 215.549861 275.681952 215.709414 275.57745 215.86685 C 275.472948 216.02358 275.364915 216.178192 275.252646 216.329979 C 275.140376 216.481061 275.024577 216.630025 274.905246 216.776165 C 274.78521 216.922305 274.66235 217.064915 274.535958 217.204701 C 274.409567 217.345193 274.279646 217.481449 274.146193 217.615587 C 274.013447 217.749019 273.877171 217.878921 273.737364 218.005999 C 273.597557 218.133077 273.454926 218.255919 273.30947 218.375938 C 273.164014 218.495956 273.015028 218.611738 272.863923 218.724696 C 272.712113 218.836949 272.558184 218.945671 272.401431 219.050864 C 272.244677 219.156056 272.085806 219.257013 271.92411 219.354439 C 271.762414 219.45116 271.5986 219.54435 271.431961 219.633305 C 271.266028 219.722966 271.097272 219.807685 270.927102 219.888167 C 270.756933 219.969356 270.58394 220.045603 270.41024 220.11832 C 270.235835 220.190331 270.060017 220.258812 269.882787 220.322351 C 269.704851 220.38589 269.526208 220.445899 269.345448 220.50026 C 269.164687 220.555328 268.983221 220.606159 268.800342 220.652048 C 268.617463 220.697938 268.433172 220.739591 268.248175 220.776302 C 268.063178 220.81372 267.877475 220.846195 267.691065 220.873729 C 267.504656 220.901263 267.317541 220.92456 267.129719 220.943622 C 266.941898 220.961978 266.754076 220.976098 266.565548 220.985981 C 266.377021 220.995159 266.188493 221.000101 265.999966 221.000101 L 131.269817 221.000101 Z M 131.269817 150.869909 " stroke="#000000" stroke-width="1.9" stroke-opacity="1" stroke-miterlimit="4"/><g clip-path="url(#c0143506aa)"><path stroke-linecap="square" transform="matrix(5.532181, 0, 0, 5.533013, 64.179081, 0.553281)" fill="none" stroke-linejoin="round" d="M 166.60978 63.369889 L 166.60978 0.94981 L 238.409842 63.369889 Z M 166.60978 63.369889 " stroke="#000000" stroke-width="1.9" stroke-opacity="1" stroke-miterlimit="4"/></g><path fill="#366dda" d="M 458.789062 711.765625 L 768.203125 711.765625 L 768.203125 1011.988281 L 458.789062 1011.988281 Z M 458.789062 711.765625 " fill-opacity="1" fill-rule="nonzero"/><path fill="#366dda" d="M 856.996094 718.351562 L 1118.890625 718.351562 L 1118.890625 765.382812 L 856.996094 765.382812 Z M 856.996094 718.351562 " fill-opacity="1" fill-rule="nonzero"/><path fill="#366dda" d="M 856.996094 847.878906 L 1118.890625 847.878906 L 1118.890625 894.910156 L 856.996094 894.910156 Z M 856.996094 847.878906 " fill-opacity="1" fill-rule="nonzero"/><path fill="#366dda" d="M 856.996094 964.902344 L 1118.890625 964.902344 L 1118.890625 1011.933594 L 856.996094 1011.933594 Z M 856.996094 964.902344 " fill-opacity="1" fill-rule="nonzero"/><path fill="#366dda" d="M 465.371094 1088.175781 L 1118.835938 1088.175781 L 1118.835938 1135.207031 L 465.371094 1135.207031 Z M 465.371094 1088.175781 " fill-opacity="1" fill-rule="nonzero"/><path fill="#366dda" d="M 465.371094 1211.617188 L 1118.835938 1211.617188 L 1118.835938 1258.539062 L 465.371094 1258.539062 Z M 465.371094 1211.617188 " fill-opacity="1" fill-rule="nonzero"/><path fill="#366dda" d="M 356.113281 280.027344 L 392.347656 280.027344 L 392.347656 511.359375 L 356.113281 511.359375 Z M 466.753906 514.625 C 449.21875 514.625 435.886719 509.644531 426.757812 499.574219 C 417.628906 489.503906 413.316406 475.285156 413.316406 456.472656 L 413.316406 443.304688 L 447.613281 443.304688 L 447.613281 459.128906 C 447.613281 474.011719 453.921875 481.539062 466.480469 481.539062 C 467.785156 481.628906 469.085938 481.574219 470.382812 481.375 C 471.675781 481.175781 472.933594 480.835938 474.15625 480.355469 C 475.375 479.878906 476.527344 479.273438 477.613281 478.539062 C 478.699219 477.804688 479.6875 476.960938 480.585938 476.003906 C 482.375 473.449219 483.671875 470.664062 484.480469 467.648438 C 485.289062 464.636719 485.558594 461.574219 485.289062 458.464844 C 485.382812 453.984375 484.871094 449.574219 483.75 445.230469 C 482.632812 440.890625 480.953125 436.78125 478.707031 432.902344 C 471.882812 422.773438 463.714844 413.886719 454.199219 406.234375 C 441.796875 396.019531 431.359375 384.085938 422.886719 370.433594 C 419.851562 364.894531 417.578125 359.054688 416.058594 352.921875 C 414.539062 346.789062 413.828125 340.566406 413.921875 334.25 C 413.921875 315.878906 418.625 301.769531 427.863281 291.699219 C 437.105469 281.628906 450.4375 276.652344 468.195312 276.652344 C 485.953125 276.652344 498.621094 281.6875 507.527344 291.699219 C 516.433594 301.714844 521.027344 316.210938 521.027344 334.859375 L 521.027344 344.429688 L 486.503906 344.429688 L 486.503906 332.480469 C 486.789062 329.433594 486.539062 326.429688 485.757812 323.472656 C 484.980469 320.515625 483.714844 317.78125 481.96875 315.269531 C 481.128906 314.324219 480.195312 313.488281 479.164062 312.757812 C 478.132812 312.027344 477.03125 311.421875 475.859375 310.941406 C 474.691406 310.460938 473.480469 310.121094 472.234375 309.917969 C 470.988281 309.714844 469.730469 309.65625 468.472656 309.738281 C 456.246094 309.738281 450.324219 317.152344 450.324219 331.871094 C 450.316406 336.027344 450.878906 340.101562 452.015625 344.097656 C 453.15625 348.097656 454.820312 351.859375 457.019531 355.386719 C 464.023438 365.308594 472.25 374.085938 481.691406 381.722656 C 487.925781 386.773438 493.675781 392.324219 498.933594 398.382812 C 504.191406 404.445312 508.882812 410.914062 513.003906 417.796875 C 515.980469 423.671875 518.195312 429.824219 519.65625 436.246094 C 521.117188 442.667969 521.777344 449.167969 521.636719 455.753906 C 521.636719 474.730469 516.933594 488.953125 507.527344 499.355469 C 498.125 509.757812 484.625 514.570312 466.757812 514.570312 Z M 594.882812 514.625 C 577.179688 514.625 563.515625 509.644531 553.941406 499.410156 C 544.371094 489.171875 539.835938 474.953125 539.835938 456.472656 L 539.835938 334.746094 C 539.835938 316.210938 544.539062 301.9375 553.941406 291.753906 C 556.640625 289.132812 559.578125 286.820312 562.753906 284.8125 C 565.933594 282.800781 569.285156 281.144531 572.808594 279.832031 C 576.332031 278.523438 579.953125 277.589844 583.671875 277.035156 C 587.390625 276.480469 591.128906 276.316406 594.882812 276.539062 C 612.75 276.539062 626.414062 281.742188 635.820312 291.753906 C 645.222656 301.769531 650.09375 316.210938 650.09375 334.746094 L 650.09375 456.472656 C 650.09375 474.953125 645.390625 489.230469 635.820312 499.410156 C 626.25 509.589844 612.75 514.625 594.882812 514.625 Z M 594.882812 481.425781 C 607.4375 481.425781 613.691406 473.902344 613.691406 458.6875 L 613.691406 332.644531 C 613.691406 317.429688 607.4375 309.902344 594.882812 309.902344 C 582.324219 309.902344 576.070312 317.429688 576.070312 332.644531 L 576.070312 458.90625 C 576.070312 474.125 582.324219 481.648438 594.882812 481.648438 Z M 594.882812 481.425781 " fill-opacity="1" fill-rule="nonzero"/></svg>